<?xml version="1.0" encoding="UTF-8"?>
<svg id="Capa_1" data-name="Capa 1" xmlns="http://www.w3.org/2000/svg" viewBox="0 0 80 62">
  <defs>
    <style>
      .cls-1 {
        fill: #fff;
      }
    </style>
  </defs>
  <path class="cls-1" d="m12,45.52c.25-.4.62-.52,1.08-.51,1.63.02,3.26,0,4.89,0,.18,0,.35,0,.57,0,.01-.21.03-.39.03-.56.06-9.15.13-18.3.19-27.45,0-1.05.23-1.28,1.3-1.28,6.37,0,12.73,0,19.1,0,.4,0,.58-.12.74-.5,1.83-4.39,6.23-7.25,10.93-7.12,5.92.16,10.75,4.81,11.19,10.78.42,5.79-3.76,11.1-9.52,12.08-.83.14-1.68.17-2.59.26v.52c0,5.85,0,11.69,0,17.54,0,3.18-2.11,5.76-5.21,6.35-.65.12-1.33.12-1.99.12-8.06,0-16.12,0-24.18,0-3.24,0-5.82-2.15-6.42-5.32-.02-.11-.06-.21-.09-.32v-4.59Zm8.19-.51h.65c5.5,0,11.01,0,16.51,0,.15,0,.29,0,.44,0,.71,0,.96.25.97.98,0,1.06,0,2.12,0,3.17,0,.32,0,.65.06.97.45,2.49,2.63,4.17,5.12,3.97,2.44-.2,4.31-2.24,4.31-4.77.02-5.99,0-11.98.01-17.97,0-.36-.13-.45-.45-.53-2.81-.71-5.06-2.24-6.71-4.63-.19-.27-.38-.33-.68-.33-2.56,0-5.11,0-7.67,0-.15,0-.29,0-.44,0-.48-.05-.79-.38-.79-.83,0-.43.31-.74.78-.79.15-.02.29,0,.44,0,2.21,0,4.43,0,6.64,0h.59c-.96-2.24-1.17-4.5-.77-6.85h-18.85c-.06,9.2-.12,18.38-.19,27.63Zm40.21-25.36c.01-5.43-4.39-9.87-9.81-9.89-5.49-.02-9.94,4.39-9.95,9.85-.01,5.48,4.41,9.92,9.89,9.91,5.46,0,9.86-4.41,9.88-9.87ZM13.64,46.65c0,.98-.03,1.94,0,2.89.1,2.61,2.15,4.58,4.76,4.58,6.8.01,13.61,0,20.41,0,.12,0,.23-.02.38-.04-1.54-1.62-2.08-2.95-2.08-5.14,0-.76,0-1.52,0-2.3H13.64Zm26.55-6.6c.98,0,1.95,0,2.93,0,.49,0,.82-.35.83-.79.01-.44-.31-.78-.79-.82-.15-.01-.29,0-.44,0-2.43,0-4.85,0-7.28,0-.99,0-1.99,0-2.98,0-.61,0-.97.37-.92.89.04.45.38.73.93.73,1.74,0,3.48,0,5.23,0,.83,0,1.66,0,2.49,0Zm-7.76-8.7c-.63,0-1.02.46-.86,1.01.13.44.46.6.9.6.99,0,1.99,0,2.98,0,2.41,0,4.82,0,7.23,0,.15,0,.29,0,.44,0,.52-.03.85-.36.84-.82,0-.46-.35-.78-.88-.78-1.76,0-3.52,0-5.28,0-1.79,0-3.58,0-5.37,0Zm-2.71-6.23c0,1.38-1.18,2.5-2.59,2.5-1.41,0-2.59-1.14-2.59-2.51,0-1.38,1.2-2.54,2.63-2.52,1.43.02,2.56,1.15,2.55,2.53Zm-2.59.86c.53,0,.97-.39.98-.88,0-.48-.43-.89-.97-.89-.54,0-.97.39-.97.88,0,.49.42.89.96.89Zm2.59,6.16c0,1.38-1.15,2.51-2.57,2.52-1.43.01-2.63-1.15-2.62-2.53.01-1.37,1.19-2.5,2.6-2.5,1.42,0,2.58,1.12,2.58,2.51Zm-2.6.88c.54,0,.98-.38.98-.87,0-.48-.44-.89-.96-.9-.53,0-.97.39-.98.87,0,.49.41.89.95.89Zm2.6,6.18c0,1.38-1.17,2.5-2.59,2.5-1.41,0-2.58-1.13-2.59-2.5,0-1.39,1.19-2.53,2.63-2.51,1.44.02,2.57,1.13,2.56,2.52Zm-2.58.86c.54,0,.97-.4.97-.88,0-.47-.46-.89-.98-.88-.53,0-.96.41-.96.9,0,.49.43.87.97.87Z"/>
  <path class="cls-1" d="m45,18.91c0-.28,0-.56,0-.84,0-.03.02-.07.02-.1.07-.41.12-.83.23-1.23.89-3.18,4.08-5.2,7.32-4.64,3.82.66,6.26,4.47,5.16,8.18-.73,2.48-2.43,4.01-4.95,4.59-.29.07-.59.09-.88.13h-.81s-.07-.02-.1-.02c-1.06-.08-2.03-.41-2.94-.97-.05-.03-.13-.03-.18-.01-.24.09-.47.2-.71.3-.54.23-1.08.47-1.62.7h-.22c-.15-.06-.26-.17-.32-.32,0-.07,0-.14,0-.22,0-.01.02-.02.02-.03.32-.75.64-1.51.97-2.26.04-.1.04-.17-.02-.26-.41-.66-.7-1.36-.84-2.12-.06-.29-.09-.59-.13-.88Zm8.15,2.93c.36-.01.75-.07,1.05-.34.22-.2.43-.42.63-.65.17-.2.15-.47-.04-.66-.25-.26-.51-.51-.77-.77-.19-.19-.44-.19-.64,0-.14.13-.26.28-.41.4-.06.05-.17.1-.24.08-.19-.04-.39-.08-.56-.18-.8-.45-1.43-1.08-1.88-1.88-.1-.17-.13-.37-.19-.56-.03-.1,0-.19.09-.27.14-.12.26-.26.39-.39.19-.2.19-.45,0-.65-.25-.25-.5-.5-.75-.75-.2-.2-.48-.22-.7-.03-.17.14-.32.29-.48.44-.27.25-.42.56-.47.93-.08.58.05,1.13.32,1.63.7,1.36,1.75,2.39,3.05,3.17.48.28,1,.46,1.59.47Z"/>
</svg>