<?xml version="1.0" encoding="UTF-8"?>
<svg id="Capa_1" data-name="Capa 1" xmlns="http://www.w3.org/2000/svg" xmlns:xlink="http://www.w3.org/1999/xlink" viewBox="0 0 80 62">
  <defs>
    <style>
      .cls-1 {
        fill: #00aae7;
      }

      .cls-2 {
        fill: none;
        stroke: #00aae7;
        stroke-miterlimit: 10;
      }

      .cls-3 {
        fill: #fff;
        filter: url(#drop-shadow-1);
      }
    </style>
    <filter id="drop-shadow-1" filterUnits="userSpaceOnUse">
      <feOffset dx="7" dy="7"/>
      <feGaussianBlur result="blur" stdDeviation="5"/>
      <feFlood flood-color="#1d1d1b" flood-opacity=".25"/>
      <feComposite in2="blur" operator="in"/>
      <feComposite in="SourceGraphic"/>
    </filter>
  </defs>
  <circle class="cls-3" cx="43.43" cy="30.37" r="18.37"/>
  <circle class="cls-2" cx="43.48" cy="30.72" r="18.26"/>
  <g>
    <path class="cls-1" d="m51.39,30.6c-.02-1.34-.26-2.52-.8-3.63-.14-.3-.11-.5.13-.72.26-.24.5-.5.76-.75.27-.26.45-.24.64.1.6,1.09.99,2.25,1.14,3.48.36,2.92-.32,5.58-2.19,7.86-2.26,2.76-5.21,4.05-8.77,3.79-4.6-.33-8.3-3.58-9.3-8.08-1.27-5.71,2.63-11.43,8.4-12.33,2.2-.34,4.31-.03,6.31.96.11.05.21.11.31.17.25.15.29.34.09.55-.3.32-.62.62-.93.93-.18.18-.36.11-.55.02-.94-.44-1.93-.69-2.96-.78-3.41-.28-6.77,1.7-8.17,4.83-2.26,5.04.79,10.77,6.23,11.69,4.76.81,9.27-2.72,9.63-7.55.02-.22.03-.45.04-.57Z"/>
    <path class="cls-1" d="m49.29,30.52c-.06,3.65-3.21,6.49-6.83,6.12-3.13-.32-5.44-2.76-5.59-5.91-.15-3.02,2-5.72,5.02-6.31.95-.19,1.91-.14,2.84.12.41.12.47.35.17.66-.31.32-.62.65-.96.95-.11.09-.29.16-.44.14-2.29-.22-4.35,1.38-4.64,3.63-.3,2.29,1.29,4.4,3.58,4.74,2.71.4,5.08-1.89,4.8-4.64-.01-.14.05-.33.14-.44.31-.34.64-.66.97-.98.27-.26.54-.2.62.17.12.57.2,1.16.3,1.74Z"/>
    <path class="cls-1" d="m43.02,32.28c-.95-.03-1.69-.76-1.74-1.72-.05-.9.62-1.71,1.54-1.83.37-.05.66-.2.93-.46,1.97-1.98,3.94-3.95,5.92-5.92.31-.31.48-.65.48-1.1,0-.55.2-1.03.6-1.43.76-.75,1.5-1.51,2.26-2.25.09-.09.26-.12.39-.17.05.14.14.27.15.41.03.52.03,1.04.05,1.56.02.41.18.57.6.59.53.02,1.06.02,1.6.05.13,0,.31.07.35.16.04.08-.05.27-.13.35-.77.79-1.55,1.56-2.33,2.34-.38.38-.86.55-1.38.55-.45,0-.79.17-1.1.48-1.97,1.98-3.94,3.95-5.92,5.92-.26.26-.41.56-.46.93-.12.9-.91,1.57-1.79,1.54Z"/>
  </g>
</svg>