<?xml version="1.0" encoding="UTF-8"?>
<svg id="Capa_1" data-name="Capa 1" xmlns="http://www.w3.org/2000/svg" viewBox="0 0 80 62">
  <defs>
    <style>
      .cls-1 {
        fill: #fff;
      }
    </style>
  </defs>
  <path class="cls-1" d="m42.32,29c1.62-1.08,2.69-2.92,2.69-5,0-3.31-2.69-6-6-6s-6,2.69-6,6c0,2.09,1.07,3.93,2.69,5-3.67,1.35-6.29,4.87-6.29,9h1.6c0-4.41,3.59-8,8-8s8,3.59,8,8h1.6c0-4.13-2.63-7.65-6.29-9Zm-3.31-.6c-2.43,0-4.4-1.97-4.4-4.4s1.97-4.4,4.4-4.4,4.4,1.97,4.4,4.4-1.97,4.4-4.4,4.4Z"/>
</svg>