<?xml version="1.0" encoding="UTF-8"?>
<svg id="Capa_1" data-name="Capa 1" xmlns="http://www.w3.org/2000/svg" xmlns:xlink="http://www.w3.org/1999/xlink" viewBox="0 0 80 62">
  <defs>
    <style>
      .cls-1 {
        fill: #00aae7;
      }

      .cls-2 {
        fill: none;
        stroke: #00aae7;
        stroke-miterlimit: 10;
      }

      .cls-3 {
        fill: #fff;
        filter: url(#drop-shadow-1);
      }
    </style>
    <filter id="drop-shadow-1" filterUnits="userSpaceOnUse">
      <feOffset dx="7" dy="7"/>
      <feGaussianBlur result="blur" stdDeviation="5"/>
      <feFlood flood-color="#1d1d1b" flood-opacity=".25"/>
      <feComposite in2="blur" operator="in"/>
      <feComposite in="SourceGraphic"/>
    </filter>
  </defs>
  <circle class="cls-3" cx="39.23" cy="30.78" r="14.78"/>
  <circle class="cls-2" cx="39.46" cy="30.99" r="14.69"/>
  <g>
    <path class="cls-1" d="m42.03,37.43h-1.44c.06-.43.1-.85.18-1.26.21-1.04.73-1.95,1.25-2.86.43-.77.91-1.53,1.23-2.34.66-1.65.55-3.25-.66-4.65-.64-.74-1.49-1.16-2.45-1.34-1.21-.23-2.38-.1-3.47.51-1.37.77-2.02,1.98-2.07,3.53-.04,1.24.45,2.3,1.04,3.35.52.92,1.04,1.83,1.5,2.78.34.7.48,1.47.47,2.28h-1.36c-.06-.35-.1-.7-.19-1.04-.22-.9-.7-1.69-1.17-2.47-.58-.99-1.19-1.97-1.48-3.09-.45-1.71-.31-3.37.67-4.88.83-1.27,2.05-1.99,3.51-2.32,1.41-.32,2.81-.22,4.14.36,1.84.81,2.94,2.2,3.24,4.2.24,1.57-.13,3.01-.88,4.37-.29.54-.62,1.07-.92,1.6-.58,1.02-1.16,2.04-1.16,3.27Z"/>
    <path class="cls-1" d="m39.11,40.96c-.62,0-1.25,0-1.87,0-.36,0-.59-.21-.6-.53,0-.32.23-.53.59-.53,1.26,0,2.51,0,3.77,0,.39,0,.61.2.61.54,0,.33-.23.53-.62.53-.62,0-1.25,0-1.87,0h0Z"/>
    <path class="cls-1" d="m39.12,38.17c.68,0,1.36,0,2.03,0,.34,0,.54.21.54.53,0,.31-.21.51-.55.51-1.35,0-2.7,0-4.04,0-.34,0-.56-.22-.55-.54,0-.3.23-.5.57-.5.67,0,1.34,0,2.01,0,0,0,0,0,0,0Z"/>
    <path class="cls-1" d="m31.68,29.66c-.57,0-1.13,0-1.68,0-.34,0-.68,0-1.02,0-.17,0-.25-.03-.24-.23.02-.38,0-.77,0-1.18h2.93v1.4Z"/>
    <path class="cls-1" d="m46.56,28.24h2.91v1.4c-.07,0-.14.02-.2.02-.82,0-1.65,0-2.47,0-.19,0-.25-.06-.24-.25.01-.38,0-.77,0-1.18Z"/>
    <path class="cls-1" d="m46.09,25.94c-.28-.39-.55-.77-.84-1.17.76-.55,1.52-1.09,2.29-1.64.28.39.55.77.84,1.17-.77.55-1.52,1.09-2.28,1.64Z"/>
    <path class="cls-1" d="m30.19,34.56c-.2-.44-.39-.87-.59-1.31.86-.39,1.7-.76,2.57-1.16.2.44.39.86.59,1.31-.87.39-1.71.77-2.57,1.16Z"/>
    <path class="cls-1" d="m29.87,24.3c.28-.39.55-.77.84-1.17.76.55,1.52,1.09,2.28,1.64-.28.4-.56.78-.84,1.17-.77-.55-1.52-1.09-2.29-1.64Z"/>
    <path class="cls-1" d="m48.63,33.24c-.19.46-.36.89-.54,1.33-.86-.35-1.71-.69-2.57-1.04.19-.45.36-.88.54-1.33.87.35,1.7.69,2.57,1.04Z"/>
    <path class="cls-1" d="m42.23,22.45c.42-.78.83-1.55,1.25-2.34.42.23.84.45,1.27.68-.42.78-.83,1.55-1.26,2.34-.42-.23-.84-.45-1.26-.68Z"/>
    <path class="cls-1" d="m33.49,20.78c.43-.23.84-.45,1.27-.67.42.79.84,1.55,1.26,2.34-.43.23-.84.45-1.27.68-.42-.78-.83-1.55-1.26-2.35Z"/>
    <path class="cls-1" d="m39.86,21.99h-1.42c0-.22,0-.43,0-.64,0-.58,0-1.15,0-1.73,0-.1-.02-.2.14-.2.42,0,.84,0,1.28,0v2.57Z"/>
    <path class="cls-1" d="m41.07,41.62c-.43.36-.8.69-1.19,1-.1.08-.25.09-.39.11-.15.02-.31-.01-.46,0-.46.06-.82-.1-1.13-.43-.21-.23-.45-.44-.72-.69h3.89Z"/>
  </g>
</svg>